<?xml version="1.0" encoding="iso-8859-1"?>
<!-- Generator: Adobe Illustrator 21.1.0, SVG Export Plug-In . SVG Version: 6.00 Build 0)  -->
<svg version="1.1" id="Layer_1" xmlns="http://www.w3.org/2000/svg" xmlns:xlink="http://www.w3.org/1999/xlink" x="0px" y="0px"
	 viewBox="0 0 360 360" style="enable-background:new 0 0 360 360;" xml:space="preserve">
<polygon style="fill:#FFEAFF;" points="135.193,168.905 109.34,186.932 136.27,276.339 195.515,260.719 "/>
<path style="fill:#F7B0C3;" d="M172.307,145.349l-43.855,27.94c0,0,10.562,22.923,13.334,29.862
	c2.773,6.939,13.411,45.778,24.968,50.404c11.565,4.626,46.704-81.848,46.704-81.848L172.307,145.349z"/>
<path style="fill:#FDEB0D;" d="M324,200.968l-4.121-2.949c-7.016-7.835-7.016-39.179-7.016-39.179s-111.004,21.203-112.245,20.789
	c-0.853-0.286-16.724,29.37-26.429,47.683c-4.934,9.31-11.309,17.739-18.909,25.037c-6.503,6.245-12.609,4.451-14.533,6.586
	c0,0,28.113,38.505,42.833,51.272h17.73c23.98-15.716,83.506-58.155,83.506-58.155L324,220.889V200.968z"/>
<path d="M270.793,196.373c0,0-28.039,37.529,0,51.966l-39.589,16.497c0,0-38.77-9.068-40.83-78.359l51.139-23.923L270.793,196.373z"
	/>
<path style="fill:#6E93C4;" d="M36,220.315c0,0,20.564-11.565,32.995-15.854c12.423-4.281,59.778-31.505,59.778-31.505l-6.269,6.953
	c-1.058,1.173-1.514,2.769-1.214,4.32c1.673,8.663,8.047,37.939,20.323,53.524c6.184,7.851,10.52,16.992,11.515,26.937l0.276,2.759
	l-115.26,52.272L36,220.315z"/>
<path style="fill:#4045CC;" d="M150.151,252.98c0,0-55.024,19.607-69.591,26.891c-8.976,4.488-28.346,16.612-41.91,25.267v14.583
	h96.564l53.322-30.421C188.536,289.299,169.436,299.255,150.151,252.98z"/>
<polygon style="fill:#4045CC;" points="323.502,319.721 323.502,230.478 265.662,260.164 197.65,319.721 "/>
<path style="fill:#FF843F;" d="M323.502,221.28c-15.364,5.989-39.29,15.678-51.415,21.315c-18.427,8.57-31.279,17.141-52.701,29.135
	c-16.084,9.007-63.776,35.392-86.577,47.991h89.043c7.176-9.689,15.724-21.3,19.385-26.561c6.855-9.857,38.134-21.001,50.128-29.142
	c11.282-7.651,20.733-18.573,32.137-25.926V221.28z"/>
<path style="fill:#F7E8CC;" d="M180.057,129.97c0,0-9.895,36.296,8.249,56.094c18.152,19.798,28.069,28.762,34.671,36.184
	c6.594,7.422,18.535,10.007,25.957,5.887c7.429-4.128,37.537-47.018,49.086-53.62c11.542-6.598,10.309-56.504,10.309-56.504
	L180.057,129.97z"/>
<path style="fill:#050606;" d="M183.205,114.878c-3.546,5.442-1.057,12.729,5.055,14.908c10.508,3.749,26.171,8.256,38.892,7.387
	c21.208-1.448,23.138,0.965,40.003-0.965c16.873-1.926,39.536-10.604,39.536-10.604l-6.755-40.975l-96.411-0.961L183.205,114.878z"
	/>
<path style="fill:#E71B19;" d="M169.304,168.506c0.483-1.926,30.85-66.522,30.85-66.522s82.433,6.748,97.376,1.448l6.487,23.345
	l4.358-1.559c0,0-0.728,10.508-5.063,17.259c-4.343,6.748-8.678,10.121-6.265,18.799c2.405,8.678,7.781,20.054,15.011,6.076
	c7.238-13.978,4.491-54.387,4.491-61.134c0-6.748,1.248-23.705,1.248-23.705s-34.735-35.482-38.105-41.268l-48.688-0.965
	c0,0-53.506,32.298-54.953,44.349s-10.608,23.62-11.09,34.71C164.479,130.425,169.304,168.506,169.304,168.506z"/>
<path style="fill:#F8F300;" d="M179.429,102.466c-0.421-3.106-2.895-6.181-5.675-8.827c-3.209,8.835-8.433,17.401-8.792,25.7
	c-0.13,2.987,0.13,7.954,0.574,13.587l11.963,11.959C177.499,144.886,180.387,109.696,179.429,102.466z"/>
<path style="fill:#FFFFFF;" d="M240.203,153.747c-0.452-0.31-11.174-7.651-11.956-17.608c-0.054-0.169-0.674-3.458,1.118-5.779
	c0.674-0.869,1.968-1.93,4.289-2.041l9.589-0.004c0.038-0.011,0.582-0.08,1.325-0.08c1.785,0,4.266,0.383,5.913,2.21
	c1.225,1.352,1.723,3.198,1.486,5.488c-0.781,7.533-9.352,17.156-9.719,17.562l-0.911,1.015L240.203,153.747z"/>
<path d="M244.561,129.805c2.19,0,6.388,0.678,5.844,5.966c-0.735,7.111-9.321,16.674-9.321,16.674s-10.546-7.111-11.282-16.428
	c0,0-1.225-5.886,3.929-6.131h9.558C243.29,129.885,243.811,129.805,244.561,129.805 M244.561,126.669l-1.471,0.08h-9.359
	c-3.071,0.142-4.726,1.516-5.599,2.646c-2.014,2.596-1.608,6.058-1.44,7.035c0.95,10.615,12.162,18.293,12.637,18.619l2.267,1.524
	l1.823-2.03c0.95-1.057,9.29-10.554,10.102-18.45c0.36-3.424-0.82-5.534-1.869-6.698
	C249.616,127.14,246.675,126.669,244.561,126.669z"/>
<path style="fill:#FFFFFF;" d="M221.247,116.972c-0.636-0.463-1.425-0.682-2.19-0.888c-3.178-0.865-6.365-1.727-9.543-2.593
	l-1.294-0.153l-1.172,0.674c-0.881,0.823-1.516,1.945-1.593,3.148c-0.237,3.964,6.426,6.606,9.367,7.759l1.708,0.429
	c0.751,0.015,1.478-0.276,2.145-0.617c1.425-0.724,2.78-1.75,3.454-3.198c0.682-1.448,0.521-3.37-0.689-4.412L221.247,116.972z"/>
<path style="fill:#FFFFFF;" d="M284.258,109.421c-2.696,0.908-5.254,2.194-7.797,3.477c-2.949,1.482-5.897,2.968-8.624,4.821
	c-1.539,1.042-3.048,2.263-3.807,3.952c-1.899,4.235,1.915,6.924,5.691,5.633c6.832-2.34,12.821-6.648,18.389-11.251
	c0.858-0.705,1.723-1.44,2.29-2.393c0.567-0.954,0.797-2.179,0.314-3.182c-0.483-0.999-1.593-1.585-2.696-1.704
	c-1.103-0.123-2.213,0.153-3.27,0.49L284.258,109.421z"/>
<g>
	<polygon style="fill:#FDEB0D;" points="249.242,92.56 243.841,92.56 243.841,61.02 251.73,61.02 251.73,90.067 	"/>
	<polygon style="fill:#FDEB0D;" points="223.083,61.502 246.164,75.746 275.437,62.814 275.437,59.946 246.604,72.12 
		223.083,58.301 223.083,61.502 	"/>
	<polygon style="fill:#FDEB0D;" points="223.083,74.453 246.269,85.627 275.437,74.175 275.437,71.209 246.498,82.229 
		223.083,70.932 223.083,74.453 	"/>
	<polygon style="fill:#FDEB0D;" points="223.083,82.785 246.296,93.975 275.437,84.075 275.437,81.054 246.473,90.669 
		223.083,79.871 223.083,82.785 	"/>
</g>
<path d="M222.539,184.601c6.301,2.533,13.039,3.988,19.824,4.256c6.377,0.211,12.908-0.128,16.954,3.35l-0.007-0.006l1.772,1.895
	l2.513-1.878c-0.656-0.877-1.409-1.692-2.257-2.41l-0.007-0.006c-5.482-4.503-12.783-3.785-18.842-4.079
	c-6.421-0.253-12.811-1.632-18.779-4.032L222.539,184.601L222.539,184.601z"/>
</svg>
