<?xml version="1.0" encoding="iso-8859-1"?>
<!-- Generator: Adobe Illustrator 21.1.0, SVG Export Plug-In . SVG Version: 6.00 Build 0)  -->
<svg version="1.1" id="Layer_1" xmlns="http://www.w3.org/2000/svg" xmlns:xlink="http://www.w3.org/1999/xlink" x="0px" y="0px"
	 viewBox="0 0 306 306" style="enable-background:new 0 0 306 306;" xml:space="preserve">
<g>
	<defs>
		<rect id="SVGID_1_" width="306" height="306"/>
	</defs>
	<clipPath id="SVGID_2_">
		<use xlink:href="#SVGID_1_"  style="overflow:visible;"/>
	</clipPath>
	<path style="clip-path:url(#SVGID_2_);fill:#D19E76;" d="M53.258,65.364l28.97,47.139l26.516-45.666l-10.312-19.15
		C98.432,47.687,56.978,60.165,53.258,65.364"/>
	<path style="clip-path:url(#SVGID_2_);fill:#B97A55;" d="M118.585,194.178c-5.337-13.875-5.332-39.486,0-50.162
		c3.048-6.103,16.476,12.679,30.017,15.257c13.541,2.577-20.649-37.929-19.235-64.448c2.946-55.24,63.342-2.946,63.342-2.946
		c-0.755-10.288-1.33-19.56-1.85-28.236c-7.802-1.483-14.354-1.226-14.354-1.226s6.552-0.257,14.354,1.226
		c-2.185-36.453-2.964-57.825-7.725-54.257c-5.892,4.42-8.102,4.42-16.941,4.42c-8.837,0-50.084,7.365-63.342,16.204
		c-13.257,8.838-19.15,48.611-19.15,48.611c-22.096-30.934-57.812,0-57.812,0v218.378h151.017
		c-5.227-13.037-12.998-31.613-18.835-41.989C148.466,237.934,123.92,208.051,118.585,194.178"/>
	<path style="clip-path:url(#SVGID_2_);fill:#DBA993;" d="M266.363,264.23c-8.839-57.45-51.558-111.955-51.558-111.955
		c1.746-3.84,3.158-7.536,4.353-11.134c-1.854,0.462-3.757,0.944-5.376,1.147c-4.437,0.553-7.947-3.328-8.133-6.286
		c-0.184-2.957-0.14-13.746-9.751-13.586c-8.319,0.138-10.953,10.028-9.844,18.161c1.11,8.134-9.289,6.517-9.982,3.467
		c-0.688-3.023-1.503-3.927-1.849-8.411c-0.554-7.21-12.015-9.982-15.527-4.253c-2.146,3.5-8.873-14.602-11.162-22.315
		c-4.641-15.648,2.946-20.623,2.946-20.623c11.784-4.911,19.642,6.383,23.57,14.239c3.928,7.858,19.15,5.402,26.024,9.821
		c5.812,3.736,9.291,6.716,23.541,5.192c0.682-15.576-3.484-28.42-8.81-39.072c-4.689-9.38-15.127-13.301-23.946-14.979
		c0.52,8.676,1.095,17.948,1.85,28.236c0,0-60.396-52.294-63.343,2.946c-1.414,26.519,32.776,67.025,19.235,64.448
		c-13.541-2.578-26.968-21.36-30.016-15.256c-5.332,10.675-5.338,36.286,0,50.161c5.335,13.873,29.881,43.756,39.486,60.832
		c5.837,10.376,13.607,28.952,18.835,41.99h103.205C280.111,290.489,276.675,280.433,266.363,264.23"/>
	<path style="clip-path:url(#SVGID_2_);fill:#FFFFFF;" d="M195.898,122.415c-8.319,0.138-10.953,10.028-9.844,18.162
		c1.941,8.919,15.776,7.776,18.577,1.802c1.04-2.218,1.018-6.377,1.018-6.377C205.464,133.045,205.509,122.256,195.898,122.415"/>
	<path style="clip-path:url(#SVGID_2_);fill:#FFFFFF;" d="M158.696,131.38c0,0-3.925,2.751-1.479,12.756
		c2.033,8.318,5.901,9.883,10.537,9.797c4.991-0.092,7.487-6.285,8.318-9.889c-0.688-3.024-1.503-3.927-1.849-8.412
		C173.669,128.422,162.208,125.651,158.696,131.38"/>
	<path style="clip-path:url(#SVGID_2_);fill:#171617;" d="M200.074,112.502c-6.874-4.419-22.096-1.964-26.024-9.821
		c-3.928-7.856-11.786-19.15-23.57-14.239c0,0-7.587,4.975-2.946,20.623c2.289,7.712,9.017,25.815,11.162,22.315
		c3.512-5.73,14.973-2.958,15.527,4.252c0.346,4.485,1.162,5.388,1.849,8.412c0.693,3.049,11.092,4.666,9.982-3.467
		c-1.109-8.134,1.525-18.024,9.844-18.162c9.612-0.16,9.567,10.629,9.751,13.587c0.186,2.958,3.696,6.839,8.133,6.285
		c1.619-0.202,3.522-0.684,5.376-1.146c2.815-8.465,4.141-16.239,4.457-23.447C209.365,119.217,205.886,116.238,200.074,112.502"/>
	<path style="clip-path:url(#SVGID_2_);" d="M200.174,200.619c0.19-0.024,0.76,1.771,0.82,1.976
		c0.221,0.747,0.331,1.513,0.325,2.294c-0.037,4.187-3.363,7.248-7.38,7.718c-0.287,0.033-0.925-2.257-0.991-2.552
		c-0.304-1.382-0.131-2.748,0.243-4.094C194.053,202.861,197.15,201,200.174,200.619"/>
	<path style="clip-path:url(#SVGID_2_);" d="M219.736,208.031c0.433-0.312,1.797,0.865,2.113,1.104
		c3.228,2.429,2.312,6.269-0.706,8.447c-0.261,0.189-1.851-0.836-2.118-1.021C215.676,214.251,216.819,210.158,219.736,208.031"/>
	<path style="clip-path:url(#SVGID_2_);" d="M198.348,139.122c0,2.259-1.18,4.09-2.635,4.09c-1.454,0-2.634-1.831-2.634-4.09
		c0-2.259,1.18-4.09,2.634-4.09C197.168,135.032,198.348,136.863,198.348,139.122"/>
	<path style="clip-path:url(#SVGID_2_);" d="M167.102,148.965c0,2.259-1.18,4.09-2.635,4.09c-1.454,0-2.634-1.831-2.634-4.09
		c0-2.259,1.18-4.09,2.634-4.09C165.922,144.875,167.102,146.706,167.102,148.965"/>
	<path style="clip-path:url(#SVGID_2_);" d="M224.777,265.746c-13.246-7.84-27.079-15.785-32.517-20.351
		c-5.675-4.724-21.98-20.518-25.825-24.368c-2.983-2.989-5.898-6.045-8.82-9.093c-1.461-1.523-2.923-3.045-4.398-4.557
		c-1.12-1.15-2.311-2.658-3.921-3.119c-1.663-0.476-3.821,0.393-3.698,2.343c0.04,0.641,0.227,1.239,0.513,1.801
		c1.023,2.012,3.314,3.582,4.755,5.073c3.181,3.294,6.361,6.588,9.566,9.859c0.61,0.619,1.218,1.242,1.834,1.856
		c4.006,4.002,20.11,19.626,26.219,24.73c6.348,5.262,20.02,13.013,33.288,20.894c13.26,7.957,23.414,13.28,54.533,13.174
		c0.571,0,0.119-0.02,0.679-0.02c-0.739-1.819-1.627-3.778-2.677-5.885c-0.364-0.014-0.753-0.027-1.107-0.057
		C245.203,277.616,237.543,273.223,224.777,265.746"/>
</g>
</svg>
