<?xml version="1.0" encoding="iso-8859-1"?>
<!-- Generator: Adobe Illustrator 21.1.0, SVG Export Plug-In . SVG Version: 6.00 Build 0)  -->
<svg version="1.1" id="Layer_1" xmlns="http://www.w3.org/2000/svg" xmlns:xlink="http://www.w3.org/1999/xlink" x="0px" y="0px"
	 viewBox="0 0 306 306" style="enable-background:new 0 0 306 306;" xml:space="preserve">
<g>
	<path style="fill:#FFADCA;" d="M9,272.979V63.539c0,0,21.371-30.989,67.32-35.263s83.349,4.274,99.377,16.029
		s32.057,30.989,57.703,19.234s45.949-25.646,55.566-20.303c9.617,5.343,11.754,30.989,0,49.154
		c-11.754,18.166-28.851,36.331-29.92,53.429s4.274,52.36,4.274,67.32c0,14.96-8.549,55.566-35.263,63.046
		C201.343,283.664,9,272.979,9,272.979z"/>
	<path d="M89.143,174.136v-51.37c0-6.141,4.865-11.318,11.006-11.336c0.964-0.003,2.013,0.037,3.153,0.128
		c13.357,1.069,13.624,9.684,13.09,16.095c-0.534,6.411-0.534,37.4-0.534,37.4L89.143,174.136z"/>
	<ellipse style="fill:#FFFFFF;" cx="100.697" cy="130.792" rx="5.61" ry="12.623"/>
	<path d="M142.037,174.136v-51.37c0-6.141,4.865-11.318,11.006-11.336c0.964-0.003,2.013,0.037,3.153,0.128
		c13.357,1.069,13.624,9.684,13.09,16.095s-0.534,37.4-0.534,37.4L142.037,174.136z"/>
	<ellipse style="fill:#FFFFFF;" cx="153.591" cy="130.792" rx="5.61" ry="12.623"/>
	<ellipse transform="matrix(0.5573 -0.8303 0.8303 0.5573 -125.6364 197.4938)" cx="122.381" cy="216.562" rx="13.624" ry="3.072"/>
	<path style="fill:#F3161E;" d="M89.41,260.957c2.889-26.065-6.11-47.954-18.298-49.305c-12.188-1.351-26.098,14.691-28.987,40.756
		c-0.712,6.427,0.902,16.608,1.371,22.313c11.979,0.566,26.241,1.2,41.529,1.802C86.337,271.788,88.813,266.344,89.41,260.957z"/>
</g>
</svg>
