<?xml version="1.0" encoding="iso-8859-1"?>
<!-- Generator: Adobe Illustrator 21.1.0, SVG Export Plug-In . SVG Version: 6.00 Build 0)  -->
<svg version="1.1" id="Layer_1" xmlns="http://www.w3.org/2000/svg" xmlns:xlink="http://www.w3.org/1999/xlink" x="0px" y="0px"
	 viewBox="0 0 306 396" style="enable-background:new 0 0 306 396;" xml:space="preserve">
<g>
	<path style="fill:#2CA454;" d="M286.325,205.762c0.886,15.064,21.316-24.362,7.105-43.648s-20.301-20.301-21.316-48.723
		s-5.075-89.326-38.572-89.326s-73.085,33.497-93.386,51.768s-47.708,73.085-58.874,90.341s5.075,26.169,30.452,20.19
		c25.377-5.979,37.834-8.009,59.52-5.979c21.686,2.03,33.866-9.136,58.228-7.105C253.843,175.31,285.31,188.506,286.325,205.762z"/>
	<path style="fill:#FFFFFF;" d="M180.57,148.569c0,0-8.759-32.044,0-47.655c8.759-15.611,20.262-26.293,37.517-27.114
		c17.255-0.822,37.95,13.968,37.051,37.385s0.745,32.455-3.364,33.277c-4.108,0.822-20.763-5.752-35.853-4.108
		C200.832,141.996,192.352,149.391,180.57,148.569z"/>
	<path style="fill:#F0E2B1;" d="M275.159,254.486c0.683-36.437,11.166-39.588,11.166-48.723
		c-1.015-17.256-32.482-30.452-56.844-32.482c-24.362-2.03-36.542,9.136-58.228,7.105c-21.686-2.03-34.143,0-59.519,5.979
		c-17.889,4.215-31.185,1.005-33.594-7.286c-16.1,7.875-32.217,21.649-54.716,37.849c-25.377,18.271-9.136,66.995,11.166,83.236
		c20.302,16.241,26.392-11.166,33.497-11.166c7.106,0,16.663,27.382,43.648,53.798c21.497,21.044,93.698,28.849,113.221,20.723
		c19.523-8.126,68.963-24.344,68.963-46.87S274.594,284.601,275.159,254.486z"/>
	<path style="fill:#FFFFFF;" d="M275.159,254.486c-4.941-21.617,0.263-31.562,5.097-38.111
		c-6.823-9.576-16.433-19.556-27.127-19.967c-20.741-0.798-27.122,26.324-20.741,50.256c5.588,20.955,11.217,65.179,43.049,14.757
		C275.24,259.219,275.113,256.943,275.159,254.486z"/>
	<path style="fill:#B17553;" d="M102.807,187.905c-7.398,0.78-13.578,0.07-17.969-1.881c-5.384,15.687-10.981,34.799-10.981,46.562
		c0,22.651-4.719,45.303,0,45.303c4.719,0,38.696-14.157,43.415-18.876C121.379,254.906,99.786,221.359,102.807,187.905z"/>
	<path style="fill:#030000;" d="M290.518,351.151c6.2-6.41,1.85-17.304-7.065-17.517c-0.331-0.008-0.669-0.004-1.014,0.012
		c-21.707,1.017-41.528-10.455-63.235-19.893c-21.708-9.438-50.966-28.314-56.628-20.764c-5.663,7.55,10.382,45.303,43.415,48.134
		c14.261,1.222,27.971,7.889,38.963,15.077c8.446,5.524,18.929,7.149,28.623,4.345C281.156,358.354,286.661,355.138,290.518,351.151
		z"/>
	<ellipse style="fill:#FFFFFF;" cx="180.57" cy="234.015" rx="27.09" ry="49.343"/>
	<path style="fill:#2799C6;" d="M171.253,244.119c0,0,20.764,0.388,22.825-25.045s-5.024-27.489-13.508-26.878
		c-8.483,0.611-12.759,4.191-14.592,25.919S161.867,242.897,171.253,244.119z"/>
	<path style="fill:#2799C6;" d="M246.612,244.119c13.286,0,27.227-21.459,24.238-38.739c-5.274-4.995-11.294-8.726-17.721-8.973
		c-15.794-0.607-23.238,14.982-23.084,33.017C233.829,237.342,239.232,244.119,246.612,244.119z"/>
	<polygon style="fill:#2CA454;" points="220.328,118.435 220.328,88.403 210.675,88.403 210.675,118.435 210.675,128.088 
		220.328,128.088 239.234,128.088 239.234,118.435 	"/>
</g>
</svg>
