<?xml version="1.0" encoding="iso-8859-1"?>
<!-- Generator: Adobe Illustrator 21.1.0, SVG Export Plug-In . SVG Version: 6.00 Build 0)  -->
<svg version="1.1" id="Layer_1" xmlns="http://www.w3.org/2000/svg" xmlns:xlink="http://www.w3.org/1999/xlink" x="0px" y="0px"
	 viewBox="0 0 306 306" style="enable-background:new 0 0 306 306;" xml:space="preserve">
<g>
	<path style="fill:#FCF40C;" d="M265.771,244.346c10.213-8.622,20.138-54.106,11.122-79.431
		c-10.668-29.957-10.668-82.383-10.668-82.383c6.455-7.867,7.87-20.763,7.205-33.577C272.391,28.875,266.226,9,266.226,9
		c-18.596,13.13-30.439,24.548-38,33.947c-15.051,18.705-13.064,29.372-13.064,29.372c-78.072-0.907-124.37,54.468-124.37,54.468
		c-24.931-0.186-42.936,0.247-54.856,0.737c-12.407,0.508-18.221,1.08-18.221,1.08v44.934l8.641,2.984l41.287,14.266
		C32.694,231.638,28.154,297,28.154,297H285.97C296.864,252.973,265.771,244.346,265.771,244.346z"/>
	<path style="fill:#F30A14;" d="M266.061,231.277c-1.926,4.936-1.383,9.819,1.098,11.59c3.144-3.676,6.162-10.596,8.532-19.144
		l-0.085-0.053C272.454,222.441,268.18,225.846,266.061,231.277z"/>
	<circle style="fill:#F30A14;" cx="120.694" cy="253.936" r="22.809"/>
	<path style="fill:#050012;" d="M197.46,183.319c0,25.851-12.178,30.277-24.681,30.277s-22.638-13.553-22.638-30.277
		c0-16.718,14.085-30.277,26.588-30.277C189.231,153.043,197.46,166.601,197.46,183.319z"/>
	<path style="fill:#050012;" d="M284.609,172.404c0,12.41-7.239,22.468-16.17,22.468c-8.931,0-16.17-10.059-16.17-22.468
		s8.34-22.468,19.234-22.468C280.433,149.936,284.609,159.995,284.609,172.404z"/>
	<circle style="fill:#968C9D;" cx="167.47" cy="169.032" r="2.691"/>
	<circle style="fill:#968C9D;" cx="265.748" cy="158.366" r="2.481"/>
	<path style="fill:#050012;" d="M266.226,9c-18.596,13.13-30.439,24.548-38,33.947l45.205,6.008C272.391,28.875,266.226,9,266.226,9
		z"/>
	<path style="fill:#050012;" d="M17.715,128.604v44.934l8.641,2.984l9.58-48.997C23.529,128.032,17.715,128.604,17.715,128.604z"/>
	<path style="fill:#B34C0C;" d="M252.433,223.144c-0.335-1.149-1.537-1.809-2.686-1.479l-0.112,0.032
		c-2.021,0.59-3.617,1.351-5.117,2.112c-1.628,0.489-2.947,1.324-4.309,1.707c-2.601,1.138-4.702,1.346-6.622,1.617
		c-1.947,0.074-4.106-0.261-6.745-1.197c-2.548-0.926-5.596-2.356-8.596-3.856l-0.271-0.133c-0.574-0.287-1.25-0.394-1.926-0.245
		c-1.596,0.335-2.612,1.904-2.271,3.495c0.941,4.42,3.213,7.941,6.585,11.011c3.309,2.989,8.271,5.229,13.596,5.048
		c5.314,0.016,10.261-2.521,13.362-5.723c1.58-1.66,2.665-3.532,3.697-5.41c0.734-2.011,1.367-4.027,1.5-6.245L252.433,223.144z"/>
</g>
</svg>
