<?xml version="1.0" encoding="iso-8859-1"?>
<!-- Generator: Adobe Illustrator 21.1.0, SVG Export Plug-In . SVG Version: 6.00 Build 0)  -->
<svg version="1.1" id="Layer_1" xmlns="http://www.w3.org/2000/svg" xmlns:xlink="http://www.w3.org/1999/xlink" x="0px" y="0px"
	 viewBox="0 0 306 306" style="enable-background:new 0 0 306 306;" xml:space="preserve">
<g>
	<path style="fill:#FFFFFF;" d="M211.947,41.106c0.001-0.613-0.025-1.216-0.074-1.812c7.527-11.383,15.672-15.342,19.153-17.919
		c0.197-0.145,0.512-0.105,0.667-0.063c14.854,14.427,20.6,29.648,19.503,49.278c-0.482,8.625-2.502,15.851-4.115,20.404
		c-9.58,2.062-16.665,5.628-20.543,8.894c-4.127,3.476-8.132,8.856-20.797,10.083c-8.596,0.833-13.362-0.357-15.725-1.364
		c3.146-15.123,8.703-35.804,17.816-52.693C210.627,50.724,211.947,45.734,211.947,41.106z"/>
	<path style="fill:#FFFFFF;" d="M158.329,69.789c-11.487-3.917-19.844-3.838-27.942-1.16c0.051-3.394,0.506-10.082,2.917-17.382
		c2.591-7.865,7.373-16.328,16.241-22.327c9.481-6.412,19.731-9.219,28.919-9.219c8.205-0.006,15.544,2.251,20.698,6.038
		c5.153,3.813,8.166,8.98,8.182,15.367c0,3.748-1.062,7.977-3.569,12.628c-7.688,14.314-12.858,30.934-16.241,44.919
		C184.186,89.301,176.369,75.94,158.329,69.789z"/>
	<path style="fill:#C7C0C5;" d="M264.79,167.52c-5.755,10.548-11.032,13.909-25.896,0.961
		c-14.864-12.948-33.089,2.877-36.444,24.457c-3.361,21.58,8.149,59.463-13.431,70.972c-21.58,11.509-53.231,22.058-83.92,2.877
		L147.781,297h102.145c0,0,10.071-23.496,4.316-41.244c-5.755-17.742,1.916-38.361,11.509-56.108
		c5.131-9.497,2.602-22.4-0.854-32.37L264.79,167.52z"/>
	
		<ellipse transform="matrix(0.3925 -0.9197 0.9197 0.3925 62.2422 204.7781)" style="fill:#05120B;" cx="186.141" cy="55.271" rx="15.422" ry="9.527"/>
	
		<ellipse transform="matrix(0.5384 -0.8427 0.8427 0.5384 42.2587 231.872)" style="fill:#05120B;" cx="232.789" cy="77.361" rx="15.422" ry="9.527"/>
	<path style="fill:#24B54F;" d="M262.391,124.36c-5.63-8.891-9.405-21.832-11.471-30.43c1.781-4.687,4.272-12.83,4.86-22.893
		c0.851-14.555-1.094-33.905-21.043-53.183c-1.184-1.146-3.991-1.817-6.446-0.177c-3.45,2.305-10.828,5.802-17.785,15.49
		c-0.201-0.574-0.445-1.233-0.644-1.652c-0.412-0.872-1.393-2.453-1.393-2.453c-1.697-2.706-3.917-5.094-6.586-7.036
		c-6.126-4.487-14.381-6.926-23.418-6.929c-10.121,0-21.254,3.08-31.499,10.006c-9.93,6.719-15.241,16.191-18.034,24.705
		c-2.804,8.528-3.153,16.16-3.158,19.577l0.017,1.042c-11.004,4.929-22.53,14.221-41.772,24.682
		c-25.115,13.659-42.699,34.508-47.015,89.197c-3.17,40.153,37.405,63.301,68.095,82.482c30.69,19.18,62.34,8.632,83.92-2.877
		c21.58-11.509,10.071-49.392,13.431-70.972c3.355-21.58,21.58-37.405,36.444-24.457c14.864,12.948,20.141,9.587,25.896-0.961
		l0.107-0.242C270.545,156.691,271.438,138.646,262.391,124.36z M211.947,41.106c0.001-0.613-0.025-1.216-0.074-1.812
		c7.527-11.383,15.672-15.342,19.153-17.919c0.197-0.145,0.512-0.105,0.667-0.063c14.854,14.427,20.6,29.648,19.503,49.278
		c-0.482,8.625-2.502,15.851-4.115,20.404c-9.58,2.062-16.665,5.628-20.543,8.894c-4.127,3.476-8.132,8.856-20.797,10.083
		c-8.596,0.833-13.362-0.357-15.725-1.364c3.146-15.123,8.703-35.804,17.816-52.693C210.627,50.724,211.947,45.734,211.947,41.106z
		 M158.329,69.789c-11.487-3.917-19.844-3.838-27.942-1.16c0.051-3.394,0.506-10.082,2.917-17.382
		c2.591-7.865,7.373-16.328,16.241-22.327c9.481-6.412,19.731-9.219,28.919-9.219c8.205-0.006,15.544,2.251,20.698,6.038
		c5.153,3.813,8.166,8.98,8.182,15.367c0,3.748-1.062,7.977-3.569,12.628c-7.688,14.314-12.858,30.934-16.241,44.919
		C184.186,89.301,176.369,75.94,158.329,69.789z"/>
	<path style="fill:#05120B;" d="M125.352,119.808c-1.085-0.051-1.647-0.309-2.057-0.59c-0.601-0.413-0.983-1.11-1.203-1.843
		l-0.191-0.919l-0.017-0.242l-0.006-0.006c0-1.588-1.287-2.877-2.877-2.877c-1.585,0-2.877,1.29-2.877,2.877
		c0.017,0.239-0.011,2.15,1.079,4.414c0.545,1.124,1.427,2.346,2.776,3.299c1.338,0.955,3.113,1.565,5.148,1.635
		c1.59,0.062,2.928-1.175,2.99-2.762C128.179,121.207,126.937,119.87,125.352,119.808z"/>
	<path style="fill:#05120B;" d="M148.461,115.737c-0.259-1.568-1.742-2.627-3.31-2.366c-1.551,0.259-2.591,1.711-2.366,3.259h-0.011
		l0.011,0.171l-0.506,1.492c-0.399,0.45-1.259,1.203-4.125,1.312c-1.585,0.045-2.838,1.371-2.793,2.959
		c0.045,1.588,1.371,2.841,2.962,2.796c3.906-0.084,6.755-1.411,8.373-3.372c1.613-1.947,1.838-4.041,1.843-5.187
		C148.539,116.237,148.483,115.86,148.461,115.737z"/>
</g>
</svg>
