<?xml version="1.0" encoding="iso-8859-1"?>
<!-- Generator: Adobe Illustrator 21.1.0, SVG Export Plug-In . SVG Version: 6.00 Build 0)  -->
<svg version="1.1" id="Layer_1" xmlns="http://www.w3.org/2000/svg" xmlns:xlink="http://www.w3.org/1999/xlink" x="0px" y="0px"
	 viewBox="0 0 306 306" style="enable-background:new 0 0 306 306;" xml:space="preserve">
<g>
	<path style="fill:#BD7B4A;" d="M275.344,73.963c0-10.913-2.07-22.529-5.28-31.996c-1.693-4.959-3.725-9.003-6.283-11.937
		c-2.526-2.924-5.763-4.757-9.419-4.744c-2.791,0.003-5.657,1.027-8.57,2.961c-2.919,1.937-5.933,4.797-9.117,8.666
		c-12.041,14.649-19.772,34.533-22.15,41.126c-8.804-4.71-17.676-6.861-26.48-6.848c-16.567,0.019-32.646,7.151-47.929,16.652
		c-3.635-6.034-16.366-26.079-31.919-35.424c-7.955-4.723-17.156-7.472-24.612-7.488c-3.577,0.008-6.798,0.626-9.334,2.229
		c-2.558,1.571-4.229,4.404-4.187,7.769c0.005,2.475,0.78,5.208,2.324,8.302c8.591,17.175,28.014,47.515,32.089,53.838
		c-2.478,3.057-4.627,6.137-6.405,9.292c-6.219,11.051-8.246,22.837-8.241,36.828c-0.011,16.981,8.082,29.966,18.642,39.863
		c10.565,9.918,23.636,16.944,34.074,22.394c8.193,4.282,17.22,6.835,27.499,6.83c16.668-0.005,36.488-6.628,61.933-22.765
		c16.652-10.603,26.591-32.354,26.607-56.12c0.005-9.236-1.581-18.793-4.824-28.141c2.048-3.147,9.987-15.429,16.482-26.947
		C273.916,91.767,275.333,83.109,275.344,73.963z"/>
	<path style="fill:#BD7B4A;" d="M142.546,225.446c-1.401-0.732-2.945-1.571-4.426-2.367c0.345,4.065,2.287,14.89,12.391,35.432
		c3.656,7.435,7.891,14.216,12.11,20.186c9.663-8.788,35.23-28.581,65.229-25.111c0.324-14.429-1.226-32.227-2.038-40.346
		c-22.489,13.362-40.484,19.029-55.767,19.035C159.766,232.281,150.739,229.728,142.546,225.446z"/>
	<path style="fill:#DC2F2C;" d="M162.621,278.698c1.056,1.491,2.107,2.929,3.152,4.32c34.546-4.426,54.722-14.131,61.196-17.708
		c0.515-3.37,0.785-7.371,0.881-11.722C197.851,250.116,172.284,269.91,162.621,278.698z"/>
	<path style="fill:#38B24D;" d="M162.621,278.698c-4.219-5.97-8.453-12.752-12.11-20.186
		c-10.104-20.542-12.046-31.367-12.391-35.432c-2.436-1.295-4.903-2.696-7.472-4.176c-4.24,0.998-10.443,4.054-12.741,13.373
		C115.09,243.69,93.688,280.953,84.28,297h93.195c-3.306-3.561-7.419-8.315-11.701-13.983
		C164.728,281.627,163.677,280.189,162.621,278.698z"/>
	<path style="fill:#38B24D;" d="M249.002,256.245c-10.587-20.441-16.896-39.094-18.95-45.568c-1.438,0.891-2.839,1.73-4.24,2.563
		c0.812,8.119,2.361,25.917,2.038,40.346c-0.096,4.351-0.366,8.353-0.881,11.722c-0.329,2.176-0.738,4.134-1.29,5.652
		c-2.462,6.761-12.444,18.409-19.427,26.039h71.957C268.96,286.35,256.532,270.791,249.002,256.245z"/>
	<path style="fill:#BD7B4A;" d="M226.969,265.309c-6.474,3.577-26.65,13.282-61.196,17.708c4.282,5.668,8.395,10.422,11.701,13.983
		h28.778c6.983-7.631,16.965-19.279,19.427-26.039C226.231,269.443,226.64,267.485,226.969,265.309z"/>
	<path style="fill:#D9AD9A;" d="M104.922,110.208c-6.973-10.945-21.847-34.705-28.895-48.8c-1.359-2.712-1.889-4.885-1.889-6.479
		c0.048-2.16,0.78-3.306,2.303-4.333c1.534-0.998,4.054-1.597,7.143-1.589c6.453-0.016,15.198,2.531,22.521,6.914
		c8.427,5.004,16.403,13.962,22.171,21.659c2.887,3.847,5.238,7.379,6.856,9.939c0.642,1.011,1.136,1.818,1.534,2.486
		c-1.969,1.282-3.937,2.582-5.88,3.922c-9.945,6.864-17.639,13.351-23.551,19.894C106.615,112.861,105.867,111.691,104.922,110.208z
		"/>
	<path style="fill:#D9AD9A;" d="M255.481,114.992c-1.385,2.202-2.584,4.081-3.529,5.551c-3.725-8.992-9.027-17.714-16.281-25.636
		c-5.768-6.318-11.632-11.208-17.533-14.872c1.99-5.636,9.796-26.132,21.677-40.532c3.009-3.656,5.779-6.238,8.231-7.859
		c2.457-1.629,4.548-2.282,6.315-2.282c2.282,0.016,4.293,1.029,6.352,3.351c2.032,2.314,3.916,5.92,5.487,10.565
		c3.067,9.008,5.073,20.29,5.068,30.685c0.011,8.714-1.427,16.793-4.569,22.338C262.985,102.879,258.766,109.762,255.481,114.992z"
		/>
	<path style="fill:#D9AD9A;" d="M225.451,166.134c-42.564-18.114-48.906-15.397-78.336-2.266
		c-17.867,7.97-35.188,17.586-46.077,23.933c2.812,4.505,6.299,8.581,10.226,12.279c10.035,9.44,22.776,16.339,33.172,21.757
		c7.705,4.012,16.005,6.357,25.61,6.363c15.548,0.005,34.673-6.219,59.747-22.129c9.615-6.076,16.976-16.583,21.078-29.245
		C244.045,173.998,235.698,170.491,225.451,166.134z"/>
	<path style="fill:#FFF1F0;" d="M154.321,121.906c2.245,8.912-3.603,16.14-13.065,16.14s-18.955-7.228-21.2-16.14
		c-2.245-8.915,3.603-16.14,13.065-16.14C142.583,105.766,152.071,112.991,154.321,121.906z"/>
	<path style="fill:#FFF1F0;" d="M202.526,121.906c-2.245,8.912,3.603,16.14,13.065,16.14s18.95-7.228,21.2-16.14
		c2.245-8.915-3.603-16.14-13.065-16.14S204.771,112.991,202.526,121.906z"/>
	<path style="fill:#180901;" d="M214.074,120.104c-0.637,2.178,1.019,3.943,3.693,3.943s5.354-1.764,5.991-3.943
		c0.637-2.176-1.019-3.943-3.693-3.943C217.39,116.162,214.705,117.929,214.074,120.104z"/>
	<path style="fill:#180901;" d="M141.145,120.104c0.637,2.178-1.019,3.943-3.693,3.943c-2.675,0-5.36-1.764-5.991-3.943
		c-0.637-2.176,1.019-3.943,3.693-3.943S140.508,117.929,141.145,120.104z"/>
	<path style="fill:#180901;" d="M182.207,161.151c-9.96,0-17.432-3.624-9.281-12.001c8.151-8.376,15.845-6.113,19.921,2.491
		C196.923,160.243,191.107,161.151,182.207,161.151z"/>
</g>
</svg>
