<?xml version="1.0" encoding="iso-8859-1"?>
<!-- Generator: Adobe Illustrator 21.1.0, SVG Export Plug-In . SVG Version: 6.00 Build 0)  -->
<svg version="1.1" id="Layer_1" xmlns="http://www.w3.org/2000/svg" xmlns:xlink="http://www.w3.org/1999/xlink" x="0px" y="0px"
	 viewBox="0 0 306 306" style="enable-background:new 0 0 306 306;" xml:space="preserve">
<g>
	<g>
		<defs>
			<rect id="SVGID_1_" x="11.011" y="9" width="283.978" height="288"/>
		</defs>
		<clipPath id="SVGID_2_">
			<use xlink:href="#SVGID_1_"  style="overflow:visible;"/>
		</clipPath>
		<path style="clip-path:url(#SVGID_2_);fill:#F59BBA;" d="M304.532,59.744c0,0-21.713,21.713-42.262,29.783
			c-2.478,0.973-5.294,0.229-6.898-1.896l-22.975-30.441c0,0-51.707,40.855-63.836,42.77c-12.129,1.915-32.556-17.874-47.877-25.534
			c-15.32-7.66-22.342-10.214-22.342-10.214s-20.597,47.668,7.143,76.894c2.181,2.298,2.938,5.62,1.998,8.645
			c-4.374,14.074-14.598,54.438,0.435,85.54c18.512,38.301,49.153,88.732,82.348,90.008c33.195,1.277,139.8,30.641,157.674-2.553
			c17.874-33.194,38.94-174.271,37.025-185.123C383.05,126.772,304.532,59.744,304.532,59.744z"/>
		<path style="clip-path:url(#SVGID_2_);fill:#1A0511;" d="M120.047,133.794l21.385-15.001c0,0-35.11-35.429-39.897-37.025
			C101.535,81.768,90.364,114.005,120.047,133.794z"/>
		<path style="clip-path:url(#SVGID_2_);fill:#1A0511;" d="M285.382,98.365l16.916,7.66l6.064-29.045
			C308.362,76.98,287.616,91.662,285.382,98.365z"/>
		<path style="clip-path:url(#SVGID_2_);fill:#9F203E;" d="M205.8,241.676c0,0,16.172-0.426,24.258-2.979
			c0,0-5.958,19.151-16.172,19.151S205.8,241.676,205.8,241.676z"/>
		<path style="clip-path:url(#SVGID_2_);fill:#0099EC;" d="M188.536,186.023c0.967-1.803,0.964-3.938,0.104-5.794
			c-3.222-6.952-12.301-23.541-26.142-25.051c-13.825-1.508-29.036,11.039-37.526,18.777c-3.108,2.833-3.676,7.472-1.366,10.987
			c6.573,10.003,20.145,28.84,29.955,30.242C166.174,216.986,180.624,200.774,188.536,186.023z"/>
		<path style="clip-path:url(#SVGID_2_);fill:#0099EC;" d="M275.906,160.74c-1.542-1.352-3.818-1.33-5.361,0.021
			c-7.194,6.305-28.263,25.262-29.848,32.399c-1.915,8.618,14.682,25.534,26.811,26.173c12.129,0.638,27.13-18.512,27.13-27.449
			C294.638,184.173,282.996,166.959,275.906,160.74z"/>
	</g>
</g>
</svg>
