<?xml version="1.0" encoding="iso-8859-1"?>
<!-- Generator: Adobe Illustrator 21.1.0, SVG Export Plug-In . SVG Version: 6.00 Build 0)  -->
<svg version="1.1" id="Layer_1" xmlns="http://www.w3.org/2000/svg" xmlns:xlink="http://www.w3.org/1999/xlink" x="0px" y="0px"
	 viewBox="0 0 306 306" style="enable-background:new 0 0 306 306;" xml:space="preserve">
<g>
	<path style="fill:#29A53E;" d="M100.947,121.843c10.516-13.044,37.442-32.387,55.109-45.012
		c17.68-12.625,42.078-23.56,42.078-23.56s15.991,14.72,12.193,39.97c0,0,14.354-30.331,33.199-45.837
		c-9.822-5.422-59.339-32.374-79.468-35.792c-22.303-3.785-71.113,11.787-90.456,38.293c-19.356,26.507-36.604,59.745-37.023,76.993
		c-0.432,17.248-2.947,34.495-9.678,36.604l45.431,23.56C72.332,187.063,90.431,134.887,100.947,121.843z"/>
	<path style="fill:#C3C2C4;" d="M115.825,256.001c-1.768,16.907-10.176,27.712-8.984,43.047h132.521c0,0-10.097-0.917,0-17.326
		s5.055-14.72-18.937-12.206c0,0-0.314-3.719-0.524-8.303C182.668,268.482,139.594,261.698,115.825,256.001z"/>
	<path style="fill:#F3E4B7;" d="M229.684,203.04c3.366-7.15,21.884-29.021,25.25-58.475c3.366-29.454-17.248-37.442-30.711-42.497
		c-13.463-5.042-24.831-2.947-33.238,5.474c-8.421,8.408-30.724,36.185-41.659,54.69c-10.935,18.518-48.142,53.027-48.142,53.027
		l-0.223,0.196c5.33,7.085,15.91,22.726,15.229,37.748c-0.052,1.139-0.247,1.711-0.365,2.798
		c23.77,5.697,66.843,12.481,104.076,5.212c-0.196-4.413-0.301-9.639,0.105-13.149c0.471-3.929,4.78-11.394,10.163-18.597
		C227.89,218.86,227.575,207.532,229.684,203.04z"/>
	<path style="fill:#F6F006;" d="M247.351,49.486c0,0-2.776-1.506-3.824-2.082c-18.845,15.506-33.199,45.837-33.199,45.837
		c3.798-25.25-12.193-39.97-12.193-39.97s-24.398,10.935-42.078,23.56c-17.667,12.625-44.593,31.968-55.109,45.012
		s-28.615,65.219-28.615,65.219l-45.431-23.56c-6.731,2.095-15.991,9.246-12.625,19.775c0,0,42.078,39.538,82.467,26.075
		c0,0,2.829,4.256,4.217,6.103l0.223-0.196c0,0,37.206-34.509,48.142-53.027c10.935-18.505,33.238-46.282,41.659-54.69
		c8.408-8.421,19.775-10.516,33.238-5.474c13.463,5.055,34.077,13.044,30.711,42.497c-3.366,29.453-21.884,51.324-25.25,58.475
		c-2.109,4.492-1.794,15.82,0.485,26.428c4.413-5.893,9.508-11.76,14.118-14.223c10.228-5.474,40.939-19.775,43.034-57.218
		C289.429,120.586,294.903,71.357,247.351,49.486z"/>
	<g>
		<g>
			<path style="fill:#FBFBFB;" d="M246.952,144.565c0,0,12.405,20.786-4.694,24.81c-17.098,4.023-28.497-8.046-27.156-10.393
				C216.443,156.635,241.923,142.554,246.952,144.565z"/>
			<path style="fill:#FBFBFB;" d="M174.355,144.565c0,0-12.405,20.786,4.694,24.81c17.098,4.023,28.497-8.046,27.156-10.393
				C204.864,156.635,179.384,142.554,174.355,144.565z"/>
		</g>
	</g>
	<path style="fill:#191322;" d="M204.864,164.376l-28.162-2.012c0,0,11.628-14.675-14.752-26.486l3.353-5.699
		C165.302,130.179,200.84,148.618,204.864,164.376z"/>
	<path style="fill:#191322;" d="M219.28,161.329l28.162-2.012c0,0-11.628-14.675,14.752-26.486l-3.353-5.7
		C258.841,127.132,223.303,145.571,219.28,161.329z"/>
	<rect x="168.32" y="217.988" style="fill:#7F7547;" width="50.96" height="11.48"/>
	<path style="fill:#191322;" d="M202.517,173.733h20.786l-7.376,27.827h-6.705C209.222,201.56,200.17,183.091,202.517,173.733z"/>
</g>
<path style="fill:#F3E4B7;" d="M220.425,269.517c0,0-60.305,4.956-105.81-7.056l1.21-6.46c0,0,55.302,12.671,104.076,5.212
	L220.425,269.517z"/>
</svg>
