<?xml version="1.0" encoding="iso-8859-1"?>
<!-- Generator: Adobe Illustrator 21.1.0, SVG Export Plug-In . SVG Version: 6.00 Build 0)  -->
<svg version="1.1" id="Layer_1" xmlns="http://www.w3.org/2000/svg" xmlns:xlink="http://www.w3.org/1999/xlink" x="0px" y="0px"
	 viewBox="0 0 306 306" style="enable-background:new 0 0 306 306;" xml:space="preserve">
<g>
	<defs>
		<rect id="SVGID_1_" width="306" height="306"/>
	</defs>
	<clipPath id="SVGID_2_">
		<use xlink:href="#SVGID_1_"  style="overflow:visible;"/>
	</clipPath>
	<path style="clip-path:url(#SVGID_2_);fill:#EBE4A9;" d="M255.179,144.095l2.647,20.304c0,0-7.282,16.773-11.585,30.345
		c-4.304,13.574,4.303,37.74,14.565,45.023c10.263,7.283-2.98,34.098-29.463,43.036c-26.483,8.938-100.638,16.883-119.507-1.986
		c-18.869-18.87-31.008-51.644-31.008-51.644l-33.877,16.884c0,0-12.249-47.285-6.621-67.01
		c5.628-19.724,40.498-30.538,40.498-30.538l55.836-45.464L255.179,144.095z"/>
	<path style="clip-path:url(#SVGID_2_);fill:#FEF7FA;" d="M225.053,151.046c-17.921,5.025-21.187,19.863-19.862,37.078
		c1.324,17.214,11.256,32.111,21.186,32.773c9.932,0.662,38.733-12.21,37.408-35.052
		C262.461,163.003,233.47,148.686,225.053,151.046"/>
	<path style="clip-path:url(#SVGID_2_);fill:#FEF7FA;" d="M170.431,146.447c-17.857-0.989-24.828,9.068-26.152,34.063
		c-1.325,24.994,9.103,39.063,26.152,37.077c17.049-1.987,23.339-29.794,19.862-45.519
		C186.818,156.343,180.032,146.979,170.431,146.447"/>
	<path style="clip-path:url(#SVGID_2_);fill:#B97A59;" d="M99.918,132.177l-19.09,16.332c0,0-0.221,79.34,0,80.664
		c0.22,1.324,35.642-21.849,35.642-21.849s-8.607-21.517-10.262-38.401c-1.655-16.883,1.986-40.056,1.986-40.056L99.918,132.177z"/>
	<path style="clip-path:url(#SVGID_2_);fill:#F50F16;" d="M80.828,148.509c0,0,34.87-11.918,66.65-7.062
		c31.781,4.855,39.726-0.883,67.093,0c27.366,0.882,32.663,19.42,43.256,22.952c0,0,14.566-20.635,7.283-35.201
		c-7.283-14.566-14.566-16.552-20.194-47.34c-5.628-30.787-13.573-71.505-41.712-72.829c-28.138-1.325-66.54,44.359-81.768,66.54
		C106.208,97.748,84.249,133.722,80.828,148.509"/>
	<path style="clip-path:url(#SVGID_2_);fill:#FFFFFF;" d="M130.132,108.788c0.146,2.165,1.637,3.999,3.684,4.717
		c7.501,2.631,26.294,8.952,42.132,12.052c20.304,3.972,54.071-0.663,58.485-10.153c4.414-9.49-9.711-84.306-35.974-86.071
		C172.914,27.615,127.326,67.03,130.132,108.788"/>
	<path style="clip-path:url(#SVGID_2_);fill:#F50F16;" d="M160.94,83.624l-11.9,18.097l-3.548-0.883
		c0,0,11.034-29.794,13.462-34.428l18.98,17.655l31.339-26.042c0,0,3.752,41.491,9.27,50.761l-11.918,3.531l-7.504-28.25
		l-25.133,14.346L160.94,83.624z"/>
	<path style="clip-path:url(#SVGID_2_);fill:#070004;" d="M147.531,241.075c0.21-2.265,2.464-3.761,4.713-3.424
		c7.558,1.133,26.965,4.841,41.58,14.585c18.54,12.359,31.339,19.862,52.085,20.304c20.746,0.441,17.214,17.556,7.946,19.813
		c-9.27,2.256-32.222,9.22-44.14,0c-11.918-9.219-20.746-17.165-34.429-18.048C163.27,273.53,146.515,251.991,147.531,241.075"/>
	<path style="clip-path:url(#SVGID_2_);fill:#26A3ED;" d="M158.954,197.699c15.005,0.695,24.277-16.527,25.602-24.031
		c1.324-7.504-9.27-20.746-20.305-20.304c-11.034,0.441-10.151,10.758-10.593,25.683
		C153.217,193.971,153.658,197.454,158.954,197.699"/>
	<path style="clip-path:url(#SVGID_2_);fill:#26A3ED;" d="M224.722,156.013c-8.817-0.98-15.228,6.164-15.007,19.523
		c0.221,13.361,3.311,23.733,13.022,24.174c9.71,0.442,27.145-18.538,28.028-21.848C251.648,174.551,236.64,157.336,224.722,156.013
		"/>
</g>
</svg>
