<?xml version="1.0" encoding="iso-8859-1"?>
<!-- Generator: Adobe Illustrator 21.1.0, SVG Export Plug-In . SVG Version: 6.00 Build 0)  -->
<svg version="1.1" id="Layer_1" xmlns="http://www.w3.org/2000/svg" xmlns:xlink="http://www.w3.org/1999/xlink" x="0px" y="0px"
	 viewBox="0 0 306 306" style="enable-background:new 0 0 306 306;" xml:space="preserve">
<g>
	<g>
		<defs>
			<rect id="SVGID_1_" x="9" y="9" width="288" height="288"/>
		</defs>
		<clipPath id="SVGID_2_">
			<use xlink:href="#SVGID_1_"  style="overflow:visible;"/>
		</clipPath>
		<path style="clip-path:url(#SVGID_2_);fill:#3B3CCC;" d="M268.74,304.073c-0.302,0.911-0.302,1.521-0.302,1.521H47.615
			l4.266-10.052v-0.302l0.609-0.911l12.182-14.625l14.922-17.661l17.365-20.714l7.005-0.302l122.135-6.094
			c0,0,6.094,7.615,13.708,17.057c2.438,2.74,4.568,5.479,7.005,8.224c5.177,6.396,10.354,12.792,14.312,17.661
			c3.964,4.573,6.703,7.922,7.312,8.531C270.568,288.234,269.349,299.807,268.74,304.073z"/>
		<path style="clip-path:url(#SVGID_2_);fill:#FFFFFF;" d="M103.354,268.438c-6.703,1.823-17.969-3.354-23.76-6.396l17.365-20.714
			l7.005-0.302l3.651,0.302C107.615,241.328,112.797,266,103.354,268.438z"/>
		<path style="clip-path:url(#SVGID_2_);fill:#FFFFFF;" d="M99.885,304.776l-52.984,1.188c0,0,3.255-6.516,4.979-10.422v-0.302
			l0.609-0.911l12.182-14.625c5.484,4.266,22.234,15.839,34.417,13.401L99.885,304.776z"/>
		<path style="clip-path:url(#SVGID_2_);fill:#FFFFFF;" d="M220.922,270.26c4.568-7.307,0.609-11.573,0.609-11.573
			s10.964-2.432,18.276-6.698c2.438,2.74,4.568,5.479,7.005,8.224C240.417,264.474,227.927,272.396,220.922,270.26z"/>
		<path style="clip-path:url(#SVGID_2_);fill:#FFFFFF;" d="M268.74,304.073l-29.542,1.521l-6.094,0.307v-0.307l-2.438-11.573
			c0,0,18.276-11.573,30.458-16.146c3.964,4.573,6.703,7.922,7.312,8.531C270.568,288.234,269.349,299.807,268.74,304.073z"/>
		<path style="clip-path:url(#SVGID_2_);fill:#0D0100;" d="M96.818,241.406l-0.582-0.492l-44.649,52.84l-5.227,12.6h222.675
			l0.103-0.641c0.002-0.02,1.197-7.433,1.199-13.258c-0.044-2.934-0.187-5.4-1.413-6.74c-0.595-0.592-3.616-4.18-7.7-9.112
			c-6.145-7.418-14.801-17.984-21.92-26.695c-7.119-8.711-12.69-15.551-12.702-15.567l-0.244-0.299l-129.908,6.62l-0.213,0.252
			L96.818,241.406l0.039,0.76l129.193-6.583l-0.039-0.76l-0.59,0.481c0,0,9.926,12.189,20.187,24.714
			c5.13,6.262,10.344,12.608,14.444,17.558c4.112,4.962,7.056,8.472,7.796,9.218c0.559,0.442,1.012,2.868,0.967,5.663
			c0.002,5.635-1.182,13.004-1.18,13.017l0.752,0.121v-0.761H48.64l4.263-10.275l44.497-52.66L96.818,241.406l0.039,0.76
			L96.818,241.406z"/>
		<path style="clip-path:url(#SVGID_2_);fill:#FFFFFF;" d="M107.542,258.698c34.302,3.891,70.391,3.661,107.969,0l-6.875-25.411
			l-99.88,8.089L107.542,258.698z"/>
		<path style="clip-path:url(#SVGID_2_);fill:#EECD26;" d="M96.219,238.141c-3.365,25.609-4.818,49.385-0.807,67.932h17.792
			c-2.807-18.224-0.656-43.182,2.833-69.953L96.219,238.141z"/>
		<path style="clip-path:url(#SVGID_2_);fill:#EECD26;" d="M192.865,233.693c10.703,23.682,18.099,46.313,22.24,72.38h17.792
			c-3.547-27.281-10.182-50.484-20.219-74.401L192.865,233.693z"/>
		<path style="clip-path:url(#SVGID_2_);fill:#FFEDC4;" d="M265.51,175.083c0,64.964-48.687,84.479-105.724,84.479
			c-57.031,0-102.635-25.224-102.635-81.974c0-42.286,2.484-65.367,21.557-80.581c19.807-15.807,56.745-22.919,85.807-22.919
			c37.594,0,75.115-2.188,92.812,26.544C271.896,124.284,265.51,140.198,265.51,175.083z"/>
		<ellipse style="clip-path:url(#SVGID_2_);fill:#FFEDC4;" cx="58.741" cy="155.027" rx="17.06" ry="29.337"/>
		<ellipse style="clip-path:url(#SVGID_2_);fill:#FFEDC4;" cx="264.375" cy="153.432" rx="12.51" ry="28.047"/>
		<path style="clip-path:url(#SVGID_2_);fill:#160416;" d="M197.271,113.214c0,0-1.365,28.661-3.641,28.206
			c-2.276-0.453-10.917-10.008-15.01-9.552c-4.094,0.453-2.729,10.008-6.828,10.008c-4.094,0-12.281-10.008-15.922-10.008
			s-9.099,8.188-11.37,7.734c-2.276-0.456-2.276-31.393-2.276-31.393S198.182,102.294,197.271,113.214z"/>
		<path style="clip-path:url(#SVGID_2_);fill:#160416;" d="M224.109,164.115c0,14.526-8.5,26.438-18.651,26.438
			c-10.422,0-18.651-11.911-18.651-26.438c0-2.906,0.276-5.521,0.823-9.583h35.661C223.839,158.594,224.109,161.208,224.109,164.115
			z"/>
		<path style="clip-path:url(#SVGID_2_);fill:#160416;" d="M128.938,165.865c0,12.365-5.641,22.771-12.693,22.771
			c-7.052,0-12.693-10.406-12.693-22.771c0-4.224,0.568-8.13,1.974-11.708h21.438C128.375,157.734,128.938,161.641,128.938,165.865z
			"/>
		<ellipse style="clip-path:url(#SVGID_2_);fill:#160416;" cx="160.875" cy="204.202" rx="2.276" ry="3.185"/>
		<path style="clip-path:url(#SVGID_2_);fill:#160416;" d="M140.891,237.982h42.849c1.262,0,2.284-1.023,2.284-2.284
			c0-1.262-1.023-2.284-2.284-2.284h-42.849c-1.262,0-2.284,1.023-2.284,2.284C138.606,236.96,139.629,237.982,140.891,237.982"/>
		<path style="clip-path:url(#SVGID_2_);fill:#253CAD;" d="M65.083,91.883c-14.88,17.091-23.833,33.93-17.203,31.721
			c0,0,12.766-1.628,35.411-4.232C82.76,111.667,80.474,95.013,65.083,91.883z"/>
		<path style="clip-path:url(#SVGID_2_);fill:#EF1C1F;" d="M262.979,75.622c-2.146-11.297-25.302-46.138-47.13-53.581
			c-12.12-4.13-25.984-5.318-40.682-4.466c-42.667,2.482-47.63,10.917-65.49,27.286c-8.286,7.602-27.141,27.263-42.167,44.154
			c-0.911,1.026-1.557,1.867-2.427,2.867c15.391,3.13,17.677,19.784,18.208,27.49c22.635-2.604,54.229-5.818,90.188-5.818
			c71.938,0,95.839,7.565,95.839,7.565S267.479,99.336,262.979,75.622z"/>
	</g>
</g>
</svg>
