<?xml version="1.0" encoding="iso-8859-1"?>
<!-- Generator: Adobe Illustrator 21.1.0, SVG Export Plug-In . SVG Version: 6.00 Build 0)  -->
<svg version="1.1" id="Layer_1" xmlns="http://www.w3.org/2000/svg" xmlns:xlink="http://www.w3.org/1999/xlink" x="0px" y="0px"
	 viewBox="0 0 306 306" style="enable-background:new 0 0 306 306;" xml:space="preserve">
<g>
	<defs>
		<rect id="SVGID_1_" width="306" height="306"/>
	</defs>
	<clipPath id="SVGID_2_">
		<use xlink:href="#SVGID_1_"  style="overflow:visible;"/>
	</clipPath>
	<path style="clip-path:url(#SVGID_2_);fill:#F67F34;" d="M295.661,254.144H68.336c0,0-39.64-3.693-38.145-35.106
		c1.496-31.414,31.413-60.583,59.835-58.339s26.926,6.731,85.265,5.235c58.338-1.496,105.458-12.715,119.669-12.715L295.661,254.144
		z"/>
	<path style="clip-path:url(#SVGID_2_);fill:#9C2A0F;" d="M297,255.471H68.335c-0.531-0.041-41.008-4.192-39.469-36.499
		c0.775-16.328,9.297-33.169,22.789-45.06c11.634-10.252,25.664-15.575,38.476-14.537c8.877,0.7,14.841,1.618,20.611,2.506
		c12.555,1.934,24.413,3.76,64.51,2.723c37.782-0.965,71.2-6.075,93.317-9.453c12.369-1.893,21.302-3.258,26.392-3.258h1.319
		L297,255.471z M86.995,161.906c-11.292,0-23.374,5.002-33.584,13.998c-12.965,11.425-21.15,27.57-21.895,43.192
		c-1.413,29.771,35.377,33.579,36.944,33.724l225.864-0.005l-0.68-98.24c-5.085,0.208-13.453,1.484-24.676,3.201
		c-22.18,3.388-55.701,8.515-93.643,9.484c-40.351,1.039-52.313-0.803-64.988-2.754c-5.72-0.882-11.635-1.79-20.413-2.486
		C88.953,161.942,87.978,161.906,86.995,161.906"/>
	<path style="clip-path:url(#SVGID_2_);fill:#F21B25;" d="M270.278,254.689c0,0-115.681-0.997-140.612-2.991
		c-24.931-1.995-62.826,2.991-67.812-0.998c-4.987-3.989,3.988-5.984,14.958-7.978c10.97-1.994,10.97-10.97,19.945-18.947
		c8.976-7.979,7.978-2.992,31.912-3.989c23.934-0.997,11.967-4.987,2.992-11.967c-8.975-6.982-22.937-29.918-24.931-56.843
		c-1.995-26.926,2.991-38.893,14.958-47.868c11.967-8.975,36.899-24.931,49.862-36.898c12.964-11.967,33.907-16.953,61.83-14.959
		c27.922,1.995,36.898,22.937,35.901,41.884c-0.998,18.948-3.989,46.871-9.973,69.808c-5.983,22.936-28.92,35.9-44.876,44.876
		c-15.956,8.974-26.925,18.947-7.978,15.956c18.948-2.992,47.868-23.935,47.868-23.935S271.275,232.75,270.278,254.689"/>
	<path style="clip-path:url(#SVGID_2_);fill:#0F9DDB;" d="M189.019,211.371c-2.23,4.889-7.347,8.1-12.66,7.293
		c-3.862-0.586-7.251-3.217-6.802-10.846c0.997-16.953,9.973-19.945-6.981-28.92c-16.953-8.975-39.89-20.942-44.876-37.896
		c-4.986-16.953,1.995-23.933,18.948-8.975c16.953,14.959,31.912,24.932,53.85,20.943c21.94-3.99,59.835-21.441,69.808-28.422
		c9.973-6.981,2.992,21.441-15.956,34.405c-18.947,12.964-37.895,19.945-44.876,31.912
		C195.26,198.089,191.41,206.132,189.019,211.371"/>
	<path style="clip-path:url(#SVGID_2_);fill:#28B454;" d="M9,197.846v-48.865c0,0,15.956,2.991,36.898-28.92
		C66.84,88.149,79.804,61.223,79.804,61.223s26.926,9.973,34.904,29.918c0,0-27.923,21.939-43.879,46.87
		C54.873,162.943,31.937,192.86,9,197.846"/>
</g>
</svg>
